HIERARCHY
ROOT root
{
  OFFSET 0 93.2929 0
  CHANNELS 6 Xposition Yposition Zposition Zrotation Xrotation Yrotation
  JOINT torso_1
  {
    OFFSET 0 5.07867 -1.15138
    CHANNELS 6 Xposition Yposition Zposition Zrotation Xrotation Yrotation
    JOINT torso_2
    {
      OFFSET 0 5.61661 1.07143
      CHANNELS 6 Xposition Yposition Zposition Zrotation Xrotation Yrotation
      JOINT torso_3
      {
        OFFSET -1.02604e-17 5.98978 0.11501
        CHANNELS 6 Xposition Yposition Zposition Zrotation Xrotation Yrotation
        JOINT torso_4
        {
          OFFSET -1.10457e-17 6.50583 -0.443523
          CHANNELS 6 Xposition Yposition Zposition Zrotation Xrotation Yrotation
          JOINT torso_5
          {
            OFFSET -1.97295e-17 7.60548 -1.50593
            CHANNELS 6 Xposition Yposition Zposition Zrotation Xrotation Yrotation
            JOINT torso_6
            {
              OFFSET -2.53307e-17 9.49737 -0.914492
              CHANNELS 6 Xposition Yposition Zposition Zrotation Xrotation Yrotation
              JOINT torso_7
              {
                OFFSET -2.90401e-17 10.5513 1.57691
                CHANNELS 6 Xposition Yposition Zposition Zrotation Xrotation Yrotation
                JOINT neck_1
                {
                  OFFSET -1.29193e-17 4.78644 0.715339
                  CHANNELS 6 Xposition Yposition Zposition Zrotation Xrotation Yrotation
                  JOINT neck_2
                  {
                    OFFSET -1.8116e-17 4.82109 0.421791
                    CHANNELS 6 Xposition Yposition Zposition Zrotation Xrotation Yrotation
                    JOINT head
                    {
                      OFFSET -2.00958e-17 4.83041 0.765062
                      CHANNELS 6 Xposition Yposition Zposition Zrotation Xrotation Yrotation
                      End Site
                      {
                        OFFSET 0 0.1 0
                      }
                    }
                  }
                }
                JOINT l_shoulder
                {
                  OFFSET 1.23299 -7.60731 7.53374
                  CHANNELS 6 Xposition Yposition Zposition Zrotation Xrotation Yrotation
                  JOINT l_up_arm
                  {
                    OFFSET 12.9547 3.2495 -3.26872
                    CHANNELS 6 Xposition Yposition Zposition Zrotation Xrotation Yrotation
                    JOINT l_low_arm
                    {
                      OFFSET 29.2081 0.0598081 0.137039
                      CHANNELS 6 Xposition Yposition Zposition Zrotation Xrotation Yrotation
                      JOINT l_hand
                      {
                        OFFSET 24.234 0.0496219 0.113701
                        CHANNELS 6 Xposition Yposition Zposition Zrotation Xrotation Yrotation
                        End Site
                        {
                          OFFSET 0.1 0 0
                        }
                      }
                    }
                  }
                }
                JOINT r_shoulder
                {
                  OFFSET -1.23299 -7.60729 7.53365
                  CHANNELS 6 Xposition Yposition Zposition Zrotation Xrotation Yrotation
                  JOINT r_up_arm
                  {
                    OFFSET -12.9547 3.2495 -3.26872
                    CHANNELS 6 Xposition Yposition Zposition Zrotation Xrotation Yrotation
                    JOINT r_low_arm
                    {
                      OFFSET -29.2081 0.0598081 0.137039
                      CHANNELS 6 Xposition Yposition Zposition Zrotation Xrotation Yrotation
                      JOINT r_hand
                      {
                        OFFSET -24.234 0.0496218 0.113702
                        CHANNELS 6 Xposition Yposition Zposition Zrotation Xrotation Yrotation
                        End Site
                        {
                          OFFSET -0.1 0 0
                        }
                      }
                    }
                  }
                }
              }
            }
          }
        }
      }
    }
  }
  JOINT l_up_leg
  {
    OFFSET 9.23673 -4.20556 2.0327
    CHANNELS 6 Xposition Yposition Zposition Zrotation Xrotation Yrotation
    JOINT l_low_leg
    {
      OFFSET -0.852353 -38.7721 -0.655187
      CHANNELS 6 Xposition Yposition Zposition Zrotation Xrotation Yrotation
      JOINT l_foot
      {
        OFFSET -2.32622 -40.4017 -6.04875
        CHANNELS 6 Xposition Yposition Zposition Zrotation Xrotation Yrotation
        JOINT l_toes
        {
          OFFSET 0.779096 -9.8844 12.4959
          CHANNELS 6 Xposition Yposition Zposition Zrotation Xrotation Yrotation
          End Site
          {
            OFFSET 0 0 0.1
          }
        }
      }
    }
  }
  JOINT r_up_leg
  {
    OFFSET -9.23673 -4.20556 2.0327
    CHANNELS 6 Xposition Yposition Zposition Zrotation Xrotation Yrotation
    JOINT r_low_leg
    {
      OFFSET 0.852353 -38.7721 -0.655187
      CHANNELS 6 Xposition Yposition Zposition Zrotation Xrotation Yrotation
      JOINT r_foot
      {
        OFFSET 2.32622 -40.4017 -6.04875
        CHANNELS 6 Xposition Yposition Zposition Zrotation Xrotation Yrotation
        JOINT r_toes
        {
          OFFSET -0.779096 -9.8844 12.4959
          CHANNELS 6 Xposition Yposition Zposition Zrotation Xrotation Yrotation
          End Site
          {
            OFFSET 0 0 0.1
          }
        }
      }
    }
  }
}
MOTION
Frames: 7
Frame Time: 0.016667
283.971 92.5388 938.342 -3.3252 -5.70921 96.9074 0 5.07867 -1.15138 0.0478962 0.194903 0.413139 0 5.61661 1.07143 0.29245 0.387067 0.299593 -1.02604e-17 5.98978 0.11501 0.309673 0.839955 0.293958 -1.10457e-17 6.50583 -0.443523 0.351475 1.16067 0.221959 -1.97295e-17 7.60548 -1.50593 0.322827 1.58572 0.097999 -2.53307e-17 9.49737 -0.914492 0.337827 1.27189 -0.134275 -2.90401e-17 10.5513 1.57691 0.112896 0.875981 -0.0591985 -1.29193e-17 4.78644 0.715339 -0.275284 -0.157529 0.178986 -1.8116e-17 4.82109 0.421791 0.586943 -9.06309 0.0196273 -2.00958e-17 4.83041 0.765062 1.37626 -9.56105 0.292475 1.23299 -7.60731 7.53374 9.5579 1.8781 1.12243 12.9547 3.2495 -3.26872 -83.0153 32.6446 -1.03338 29.2081 0.0598081 0.137039 8.05991 -3.08462 -42.424 24.234 0.0496219 0.113701 -0.638398 -21.9025 -0.807521 -1.23299 -7.60729 7.53365 -4.7283 1.12231 1.29671 -12.9547 3.2495 -3.26872 80.8923 16.5243 3.02694 -29.2081 0.0598081 0.137039 -8.64993 -3.65504 46.3425 -24.234 0.0496218 0.113702 3.73487 -13.4026 3.22336 9.23673 -4.20556 2.0327 6.17664 -31.9799 -19.0341 -0.852353 -38.7721 -0.655187 -1.75588 6.54862 -0.0139659 -2.32622 -40.4017 -6.04875 -8.18536 18.8058 16.0504 0.779096 -9.8844 12.4959 4.38189e-15 -4.83566e-16 -3.74477e-16 -9.23673 -4.20556 2.0327 16.4085 5.91743 5.08097 0.852353 -38.7721 -0.655187 6.35712 22.7365 -0.876441 2.32622 -40.4017 -6.04875 -3.44876 -1.20078 -14.888 -0.779096 -9.8844 12.4959 4.46942e-16 -4.31122e-16 -1.26182e-14 
288.893 92.2952 938.734 -2.57023 -5.6961 96.964 0 5.07867 -1.15138 -0.0920539 1.42056 0.415089 0 5.61661 1.07143 0.184262 1.23105 0.231975 -1.02604e-17 5.98978 0.11501 0.224659 1.18715 0.208647 -1.10457e-17 6.50583 -0.443523 0.287788 0.666917 0.118607 -1.97295e-17 7.60548 -1.50593 0.272965 0.676202 -0.00661764 -2.53307e-17 9.49737 -0.914492 0.295883 0.113404 -0.208173 -2.90401e-17 10.5513 1.57691 0.0874635 1.04195 -0.0510694 -1.29193e-17 4.78644 0.715339 -0.250248 -0.582523 0.195324 -1.8116e-17 4.82109 0.421791 0.501858 -8.78678 0.0386952 -2.00958e-17 4.83041 0.765062 1.63869 -8.9579 0.47228 1.23299 -7.60731 7.53374 8.98845 2.47537 0.265494 12.9547 3.2495 -3.26872 -81.8653 32.2444 0.143653 29.2081 0.0598081 0.137039 8.55877 -3.56181 -45.7206 24.234 0.0496219 0.113701 -0.812655 -22.0383 -1.47963 -1.23299 -7.60729 7.53365 -5.41833 1.93785 1.72341 -12.9547 3.2495 -3.26872 82.1645 18.2046 1.97839 -29.2081 0.0598081 0.137039 -8.36211 -3.36701 44.3989 -24.234 0.0496218 0.113702 4.80244 -17.0835 4.2038 9.23673 -4.20556 2.0327 6.45934 -30.4318 -18.0041 -0.852353 -38.7721 -0.655187 -1.19521 4.46271 -0.0313584 -2.32622 -40.4017 -6.04875 -8.0796 19.7976 15.8763 0.779096 -9.8844 12.4959 1.07471e-15 -6.26452e-16 -2.32604e-16 -9.23673 -4.20556 2.0327 16.9868 4.88881 5.87457 0.852353 -38.7721 -0.655187 7.93226 27.6534 -1.46126 2.32622 -40.4017 -6.04875 -1.68308 1.71261 -14.9283 -0.779096 -9.8844 12.4959 -5.90285e-16 -3.86309e-16 -1.25757e-14 
293.758 91.7752 939.164 -1.7219 -5.05657 96.8872 0 5.07867 -1.15138 -0.465461 2.7724 0.405573 0 5.61661 1.07143 -0.128793 2.16285 0.12986 -1.02604e-17 5.98978 0.11501 -0.0210695 1.61837 0.092846 -1.10457e-17 6.50583 -0.443523 0.107048 0.24302 -0.0100437 -1.97295e-17 7.60548 -1.50593 0.158549 -0.196881 -0.117724 -2.53307e-17 9.49737 -0.914492 0.240763 -1.0025 -0.288169 -2.90401e-17 10.5513 1.57691 0.0547994 1.20423 -0.0346273 -1.29193e-17 4.78644 0.715339 -0.207499 -1.07269 0.297945 -1.8116e-17 4.82109 0.421791 0.438028 -8.64986 0.0894854 -2.00958e-17 4.83041 0.765062 1.99018 -8.47027 0.633309 1.23299 -7.60731 7.53374 8.27499 3.09473 -0.616858 12.9547 3.2495 -3.26872 -80.0418 31.6909 0.679074 29.2081 0.0598081 0.137039 9.09537 -4.14221 -49.4919 24.234 0.0496219 0.113701 -0.961586 -22.1441 -2.11462 -1.23299 -7.60729 7.53365 -5.85054 2.83815 2.17704 -12.9547 3.2495 -3.26872 83.6502 20.1694 0.995662 -29.2081 0.0598081 0.137039 -8.036 -3.06297 42.2696 -24.234 0.0496218 0.113702 5.95261 -21.8606 5.43629 9.23673 -4.20556 2.0327 6.03491 -28.4002 -17.1009 -0.852353 -38.7721 -0.655187 -1.02331 3.82149 -0.0325844 -2.32622 -40.4017 -6.04875 -7.23386 18.9754 15.5716 0.779096 -9.8844 12.4959 -1.0801e-15 -7.19549e-16 -1.42079e-16 -9.23673 -4.20556 2.0327 16.5899 3.36369 6.25266 0.852353 -38.7721 -0.655187 9.98087 33.4509 -2.40178 2.32622 -40.4017 -6.04875 1.0276 4.94694 -15.0755 -0.779096 -9.8844 12.4959 -1.59241e-15 -3.43013e-16 -1.2536e-14 
298.56 90.9872 939.606 -1.02163 -4.04694 96.6099 0 5.07867 -1.15138 -1.02969 4.04554 0.378675 0 5.61661 1.07143 -0.603821 3.03917 -0.00534657 -1.02604e-17 5.98978 0.11501 -0.390379 2.06036 -0.0528606 -1.10457e-17 6.50583 -0.443523 -0.160244 -0.0614903 -0.162674 -1.97295e-17 7.60548 -1.50593 0.000674288 -0.914711 -0.237191 -2.53307e-17 9.49737 -0.914492 0.182114 -1.92177 -0.382133 -2.90401e-17 10.5513 1.57691 0.0208508 1.34634 -0.0134978 -1.29193e-17 4.78644 0.715339 -0.137284 -1.51309 0.514071 -1.8116e-17 4.82109 0.421791 0.477868 -8.6565 0.186852 -2.00958e-17 4.83041 0.765062 2.43446 -8.32238 0.688222 1.23299 -7.60731 7.53374 7.53571 3.64692 -1.38812 12.9547 3.2495 -3.26872 -77.6451 31.0507 0.505973 29.2081 0.0598081 0.137039 9.6455 -4.82649 -53.6774 24.234 0.0496219 0.113701 -1.03291 -22.3372 -2.7456 -1.23299 -7.60729 7.53365 -6.03353 3.70895 2.57865 -12.9547 3.2495 -3.26872 85.3048 22.1682 0.115226 -29.2081 0.0598081 0.137039 -7.69847 -2.7709 40.1365 -24.234 0.0496218 0.113702 7.19751 -26.8196 6.87334 9.23673 -4.20556 2.0327 5.16517 -26.347 -16.7958 -0.852353 -38.7721 -0.655187 -1.21815 4.54821 -0.031049 -2.32622 -40.4017 -6.04875 -6.02638 16.9281 15.2865 0.779096 -9.8844 12.4959 -5.48369e-16 -6.96576e-16 -1.64959e-16 -9.23673 -4.20556 2.0327 15.281 1.10053 6.17358 0.852353 -38.7721 -0.655187 12.7331 40.1697 -3.93451 2.32622 -40.4017 -6.04875 4.26185 8.06461 -15.3432 -0.779096 -9.8844 12.4959 -1.53107e-15 -3.45663e-16 -1.2542e-14 
303.267 89.9473 940.011 -0.660504 -2.98166 96.0647 0 5.07867 -1.15138 -1.72133 5.09548 0.326922 0 5.61661 1.07143 -1.17737 3.76276 -0.172903 -1.02604e-17 5.98978 0.11501 -0.828515 2.45692 -0.227217 -1.10457e-17 6.50583 -0.443523 -0.469485 -0.233268 -0.337595 -1.97295e-17 7.60548 -1.50593 -0.17078 -1.42042 -0.369069 -2.53307e-17 9.49737 -0.914492 0.132292 -2.56953 -0.499812 -2.90401e-17 10.5513 1.57691 -0.0115343 1.45612 0.0123247 -1.29193e-17 4.78644 0.715339 -0.0183512 -1.93557 0.904533 -1.8116e-17 4.82109 0.421791 0.667401 -8.78171 0.360922 -2.00958e-17 4.83041 0.765062 2.93991 -8.54975 0.592746 1.23299 -7.60731 7.53374 6.80155 4.06971 -1.97471 12.9547 3.2495 -3.26872 -74.7553 30.4207 -0.391941 29.2081 0.0598081 0.137039 10.1769 -5.5998 -58.1476 24.234 0.0496219 0.113701 -0.907633 -22.8298 -3.43702 -1.23299 -7.60729 7.53365 -5.99007 4.48273 2.87968 -12.9547 3.2495 -3.26872 87.0231 23.9594 -0.65775 -29.2081 0.0598081 0.137039 -7.36708 -2.50451 38.1032 -24.234 0.0496218 0.113702 8.5237 -31.0192 8.41824 9.23673 -4.20556 2.0327 3.9985 -24.8677 -17.4027 -0.852353 -38.7721 -0.655187 -1.876 6.99405 -0.00757769 -2.32622 -40.4017 -6.04875 -3.83354 13.3239 15.0172 0.779096 -9.8844 12.4959 -2.81683e-16 -6.85054e-16 -1.73293e-16 -9.23673 -4.20556 2.0327 13.3128 -2.06929 5.89261 0.852353 -38.7721 -0.655187 16.549 47.6513 -6.45258 2.32622 -40.4017 -6.04875 7.38808 10.5789 -15.6475 -0.779096 -9.8844 12.4959 -1.19156e-15 -3.60331e-16 -1.25569e-14 
307.856 88.7206 940.296 -0.52983 -2.16631 95.307 0 5.07867 -1.15138 -2.46139 5.92019 0.23195 0 5.61661 1.07143 -1.76704 4.34287 -0.379856 -1.02604e-17 5.98978 0.11501 -1.26204 2.82436 -0.433056 -1.10457e-17 6.50583 -0.443523 -0.758836 -0.249462 -0.535956 -1.97295e-17 7.60548 -1.50593 -0.312388 -1.69087 -0.523917 -2.53307e-17 9.49737 -0.914492 0.111488 -2.92269 -0.660204 -2.90401e-17 10.5513 1.57691 -0.0478528 1.52375 0.0518464 -1.29193e-17 4.78644 0.715339 0.195026 -2.58109 1.59272 -1.8116e-17 4.82109 0.421791 0.970234 -9.03048 0.667305 -2.00958e-17 4.83041 0.765062 3.39789 -8.94482 0.292695 1.23299 -7.60731 7.53374 5.9509 4.31436 -2.35951 12.9547 3.2495 -3.26872 -71.3991 29.7716 -2.12007 29.2081 0.0598081 0.137039 10.6523 -6.42247 -62.6732 24.234 0.0496219 0.113701 -0.433351 -23.5943 -4.1763 -1.23299 -7.60729 7.53365 -5.59989 5.13768 3.13024 -12.9547 3.2495 -3.26872 88.5853 25.2268 -1.25834 -29.2081 0.0598081 0.137039 -7.02388 -2.24815 36.0534 -24.234 0.0496218 0.113702 9.70718 -33.5724 9.8809 9.23673 -4.20556 2.0327 2.20327 -24.289 -19.2355 -0.852353 -38.7721 -0.655187 -3.2155 11.9058 0.126748 -2.32622 -40.4017 -6.04875 1.59731 6.48744 14.9337 0.779096 -9.8844 12.4959 -2.81683e-16 -6.85054e-16 -1.73293e-16 -9.23673 -4.20556 2.0327 11.0586 -6.11845 5.67775 0.852353 -38.7721 -0.655187 22.1192 55.5907 -10.6848 2.32622 -40.4017 -6.04875 10.0701 12.0129 -15.8771 -0.779096 -9.8844 12.4959 -2.18548e-15 -3.17389e-16 -1.25052e-14 
312.31 87.5069 940.185 0.678139 -0.830163 95.3356 0 5.07867 -1.15138 -3.10187 7.12791 -0.00218623 0 5.61661 1.07143 -2.26087 5.1805 -0.712659 -1.02604e-17 5.98978 0.11501 -1.62214 3.37468 -0.760391 -1.10457e-17 6.50583 -0.443523 -1.00261 -0.226571 -0.851761 -1.97295e-17 7.60548 -1.50593 -0.458491 -2.03557 -0.796362 -2.53307e-17 9.49737 -0.914492 0.0264463 -3.38743 -0.915199 -2.90401e-17 10.5513 1.57691 -0.104925 1.60487 0.113891 -1.29193e-17 4.78644 0.715339 0.321661 -3.60051 1.88257 -1.8116e-17 4.82109 0.421791 0.955898 -9.13298 0.784761 -2.00958e-17 4.83041 0.765062 3.75787 -8.76694 0.413726 1.23299 -7.60731 7.53374 4.71604 4.71435 -3.05137 12.9547 3.2495 -3.26872 -67.4592 28.6925 -5.14337 29.2081 0.0598081 0.137039 10.987 -7.11012 -66.3165 24.234 0.0496219 0.113701 -0.262273 -24.5103 -5.19078 -1.23299 -7.60729 7.53365 -4.72615 5.98294 3.74748 -12.9547 3.2495 -3.26872 89.3649 25.1104 -2.10487 -29.2081 0.0598081 0.137039 -6.71541 -2.03345 34.2539 -24.234 0.0496218 0.113702 9.68187 -34.0735 9.78911 9.23673 -4.20556 2.0327 -0.971737 -24.6844 -21.4229 -0.852353 -38.7721 -0.655187 -5.79445 20.8891 0.69971 -2.32622 -40.4017 -6.04875 5.14032 -2.17999 15.2687 0.779096 -9.8844 12.4959 3.77653e-16 -6.56568e-16 -2.042e-16 -9.23673 -4.20556 2.0327 8.02444 -10.1355 5.1943 0.852353 -38.7721 -0.655187 30.5433 63.2617 -17.8092 2.32622 -40.4017 -6.04875 11.9819 13.0001 -16.0297 -0.779096 -9.8844 12.4959 1.17274e-16 -4.16879e-16 -1.26079e-14 
